# xmcd
#
# Track frame offsets:
#	150
#	12607
#	24295
#	38480
#	53940
#	67915
#	80092
#	89745
#	104182
#	128017
#	145037
#	160335
#	175180
#	190397
#	205725
#	223560
#	237242
#
# Disc length: 3327
#
# Revision: 4
# Processed by: cddbd v1.5.1PL0 Copyright (c) Steve Scherf et al.
# Submitted via: AltoMP3_Maker 3.0
# Normalized: r2:DSETVAR1,TSWAP
#
DISCID=ef0cfd11
DTITLE=Various Artist - Born To Boogie
DYEAR=1900
DGENRE=
TTITLE0=Hank Williams Jr. - Born To Boogie
TTITLE1=Steve Earle - Guitar Town
TTITLE2=Reba McEntire - Little Rock
TTITLE3=T.G. Sheppard - War Is Hell (On The Homefront, Too)
TTITLE4=Steve Wariner - Lynda
TTITLE5=The Judds - Rockin' With The Rhythm of The Rain
TTITLE6=Mel McDaniel - Let It Roll (Let It Rock)
TTITLE7=Tanya Tucker - Just Another Love
TTITLE8=Alabama - She And I
TTITLE9=Dan Seals - Bop
TTITLE10=Juice Newton - Queen Of Hearts
TTITLE11=Lee Greenwood - Dixie Road
TTITLE12=John Conlee - Mama's Rockin' Chair
TTITLE13=Ricky Van Shelton - Crime Of Passion
TTITLE14=Ricky Skaggs - Cajun Moon
TTITLE15=John Anderson - Swingin'
TTITLE16=Eddy Raven - I'm Gonna Get You
EXTD=
EXTT0=
EXTT1=
EXTT2=
EXTT3=
EXTT4=
EXTT5=
EXTT6=
EXTT7=
EXTT8=
EXTT9=
EXTT10=
EXTT11=
EXTT12=
EXTT13=
EXTT14=
EXTT15=
EXTT16=
PLAYORDER=
